<svg version="1.1" id="Layer_1" xmlns="http://www.w3.org/2000/svg" x="0" y="0" viewBox="0 0 359.1 90.8" style="enable-background:new 0 0 359.1 90.8" xml:space="preserve"><style>.st0{fill:#333}</style><g transform="translate(-59.85 -84.95) scale(.36742)"><path class="st0" d="M393.5 248.9c-24.3 15.6-17.3 60.1-23.1 85.1-21.5-47.7-100-29.3-105 20.9-3.4 1.6-7.2 3.3-11.4 5.1 2.2-8.1 8.8-79.3 14.6-84.3 3.1-5 7.8-3.3 12.4-2.1 4.1-6.9-.2-18.8-4.3-24.9-33.5 20.9-65.1-17.4-95.1 4.1-29.6 32.7 14.6 59.6 46.7 44.3-4 24.7-6.8 52.1-10.2 79-80.2 34.9-52.8 127.5 10.5 87.1v-.1c18.7-12.4 18-61.1 22.5-81.6 2.9-1.2 9.2-3.7 14.1-5.7 6.5 47.2 78 52.2 99.7 12.4.4 8.1 3.1 14.5 7.9 19.3v.1c11 11.2 34.1 9.3 47 1.3 4.8-2.8 9-6.1 12.6-10 1.3 3.3 3.2 6.1 5.7 8.6v.1c11 11.2 34.1 9.3 47 1.3h-.1c4-2.3 7.5-5 10.6-8.1 4.8 7.7 12.4 11.9 22 13.6-57.1 64.6 54.2 95.5 59.2 17.6l3.3-25.1c12 4.1 18 16.2 21.5 32.2 24.6-14.4-.3-48.9-19.4-50.6-1.1-1.9 12.6-79.6 8.8-80.3-9.8-3.3-27.3-2.8-32.8 8.5-1.7 10.6-6.4 55.6-7.6 65.4-7.5 13.4-30.6 11.7-25.4-6.8-.6-7.1 11.6-60 4.1-64.7-7.3-6.9-19.3-4.8-28.7-1.3-3.1 19.1-4.8 38.9-7.3 57.2h-.1c-1 5.8.3 10.5-3.6 14.4-5.5 9.1-24 19.1-26.7 4.1-.5-5 3.7-34.3 4.8-46.7 38-25.6 61.6-109.8-8.8-89.3h.1c-25.6 12.8-21.1 98.7-27.1 119.6-4 12.1-27.2 36.9-34.1 16.4-.5-5 3.8-34.3 4.8-46.7 37.9-25.3 60.9-110.2-9.1-89.4m16.8 24s0-.1.1-.1c1.3-6.8 9.7-6.7 10.9 0 1.5 12.7-4.3 23.8-16 38.2l.1-1.7v.1c.7-4.5 3.2-31.7 4.9-36.5M340.2 358c-7.7 68.6-62.5 28.2-34.7-20 15.3-24.7 37.8-3.2 34.7 20m146.2-85.2c1.4 12.7-4.3 23.8-16 38.2l.2-1.7v.1c1.4-5.3 2-58.9 15.8-36.6M211 277.4c4.5 1.2 9 2.3 13.4 3.4-22.9 14.8-41.8-12.7-13.4-3.4m-20.7 167.2h.1c-8.3-17.4 4.1-31.5 24.8-45.4l-4.9 37.3v.1c-.2 10.6-13.2 16.7-20 8m331.4-1.1c.5-11.5 9-21.7 25.5-30.9-2.8 13.7-.3 55-22.4 40.3h-.1c-2-2.2-3-5.3-3-9.4m214.9-170.7c-1.4 34.7-2.4 81.8-22.3 112.1-6.7 9.8-21.1 7.3-20.1-5 2.1-33.4 11.8-78.2 15.5-118 1.5-16-24.7-14.1-34-8.5-.8.5-13.9 109.6-14.2 110.4-.1 16.2-14.8 38.1-26.4 21.2-3-12.5 2-25.5 3.3-40.5 2.9-25.5 7.8-47.3 9.7-71.6 1.4-28.1-35-35-53.2-19.2-19.1 18.2-8.3 45.7 13.5 60.7-.2 21.4-18.4 74.5.7 91.4 15.3 16.3 50.1 10.7 61.6-7.6 21.2 34.7 72 12.5 81.1-20.7 10.7 55.5 98.9 46.4 106.9-7.6-9.9 90.8 113.4 30.5 39.1-32.2 3.8-10 19-14 19.3-1.3-3.2 11.4 13.7 4.7 17.5 1.2 22.5-23.9-20.2-42.7-37-23.1-2.5-11.4-22.6-8.6-31.7-5.2-.8.7-5 43.7-5.3 44.6 2.6-48.2-63.4-61.8-92.4-30.7-1.6 1.4-3 2.9-4.2 4.5 0-20.5 20-82.6-7.1-82.5-26.9 2-22 4.4-20.3 27.6M792 338c15.2-24.6 37.8-3.2 34.6 20.1 2.5 20.1-19.8 50.8-37 28.7-8.5-13.2-4.6-37.1 2.4-48.8m101.2 18.8c21.7 18.6 2.7 50.9-3.5 28 0-.3 1.2-9.4 3.5-28M605 268.4c0-.1.1-.1 0 0 12.8-10.4 6.6 16.7 6.3 22.7-6.5-7.5-10.5-14.9-6.3-22.7m501.6-23c-8.3 0-18.6 2.8-21.2 10.1l-6.3 52.8c-41.6-11.7-81.8 21.4-77.2 65.9-4.7 10.7-26.3 29-31.1 10.6-.5-5 3.7-34.3 4.8-46.7 38-25.6 61.6-109.8-8.8-89.3-19.4 9.6-17.6 44.8-20.7 63.5-3.7 58-16.8 72-.2 95.1v.1c10.9 11.2 34.1 9.3 47 1.3 6.1-3.6 11.3-8.1 15.4-13.5 1.7 2.6 3.6 5.1 5.9 7.4 15.4 15.8 44.6 17.3 59.4-.5 6.5 12.6 27.1 16.2 41.2 8.7 14.3-6.1 36.8-35.9 15.5-49.3-5.8 7.6-7.3 19.4-12.4 23.7h-.1c-34.7 39.4 3.4-114.5 1.6-136.1-1.3-3.8-7-3.4-12.8-3.8m-123.1 27.5v-.1c1.3-6.8 9.7-6.7 10.9 0 1.4 12.7-4.3 23.8-15.9 38.2l.1-1.7v.1c.7-4.5 3.2-31.7 4.9-36.5m51.9 97.6c-.1-26.3 13.6-52 41.1-41.9l-5.4 45.5c-6.3 24.7-36.7 23.1-35.7-3.6z" id="JollyWorldLogo_2_0_Layer1_0_FILL"/></g><g transform="translate(-59.85 -84.95) scale(.36742)"><path id="JollyWorldLogo_2_0_Layer1_0_1_STROKES" d="M224.3 280.8c-8.9 4.5-17.4 6-24.4 2.3-3.9-2.2-4.1-8.3 1-8.2 4 .5 17.7 4.7 23.4 5.9zm-9.1 118.4-4.9 37.3v.1c-.2 10.7-13.2 16.8-19.9 8.1h.1m356.7-32.1c-2.8 13.7-.3 55-22.4 40.3h-.1c-2-2.1-3-5.2-3-9.4" style="fill:none;stroke:#fff;stroke-width:.7348;stroke-linecap:round;stroke-linejoin:round;stroke-miterlimit:1.4697"/></g><g transform="translate(-59.85 -84.95) scale(.36742)"><g id="JollyWorldLogo_2_0_Layer0_0_FILL"><path class="st0" d="M453.9 235c-25.8 13.3-20.7 92.8-27.4 119.9-3.9 12.9-29.4 37.4-33.1 14.5.5-7.9 3.8-33 4.9-44.3 39.4-26.5 60.4-111-9.6-90.1-23.8 14.1-17.9 60.9-23.1 83.6-23.1-46.3-100.2-26.8-105.2 22.5-3.1 1.4-6.5 3-10.2 4.6 2.1-7.9 8.8-78.2 14.3-83.1 3.1-5.1 7.6-2.7 12.1-1.9 4.7-6.9.3-20.8-5-26.4-21.7 15.9-49-.3-72-2.5-60.1 6-29.5 75.5 23.3 52.8-3 19.4-5.6 40.8-7.9 61.4h.1l-2.1 16.5c-80.1 34.8-53.1 128.8 11.3 87.9h.1c18.8-12.4 18.1-61 22.6-81.6 2.8-1.2 8.5-3.5 13.2-5.4 7.5 47 77.1 51.7 99.8 13.3.7 7.4 3.3 13.4 7.9 18 11.9 11.6 34.1 9.5 47.7 1.5 4.5-2.6 8.6-5.8 12.1-9.5 1.3 3 3.1 5.7 5.4 8 11.8 11.6 34.1 9.5 47.7 1.5h-.1c3.8-2.2 7.3-4.8 10.3-7.7 1.1 1.7 2.5 3.3 4 4.8v-.3c4.6 4.5 10.4 7 16.9 8.3-16.6 16.3-21.8 41.5-5.6 56.3 14.6 13 43 9.4 53.7-5.6 12-13 13.6-39.8 16-57.8 13 5.1 16.6 16.9 20.8 31.9 25.3-12.3 2.8-48.7-18.5-51.5-.3-1.4 10.9-78.4 9.7-79.6-9.3-5.3-29.8-3.3-34.7 8.1-2.6 17.8-5.4 47.4-7.6 65.2-7.6 12.9-29.1 11.7-24.4-6.5l7-55.3c.4-17.5-19.3-15.8-31.7-11.7-7.6 22-3.3 50.8-12 72.3-37.4 36.8-22.6-19.9-20.9-42.1 39.2-26.5 60.2-111-9.8-90m-62.4 5.4c66.2-17.7 35.4 59.6 2.5 83.3 1.4 17.9-16.6 58.7 7.8 60.7 56-8.1 18.1-116.8 54.9-144 66.2-17.7 35.4 59.6 2.5 83.3-.2 16.7-8.2 41.5-2.9 54.5 7.3 12.6 24.1 5 32.4-6.9 8.9-21.1 6.4-48 11.2-71.3 7.7-2 17-3.9 22.8 1.1l.2-.1c2.9 6.6-6.9 58.4-6.5 65.3-1.4 20.5 24.9 21.3 33.7 5.5 5.2-13 .7-67.6 14.7-71.5h-.1c7.1-2.9 12.1-2.6 18.6-1.4.7 2.2-11.7 77.2-9 79 0 1 .8 1.9 1.8 2.1 10.8 2 18.7 7.7 23.6 17.1 3 7.5 6.8 14.7-.6 22.3-2.7-13.1-12.2-30.4-26.7-29.5-3.6 17.6-3.4 46.2-16 59.4v.1c-13.4 19-57 15.5-54.8-13.7.1-11.2 5.8-22.1 17.1-32.7.9-.9.8-2.3 0-3.1l-.1.1c.1-1.1-.8-2.2-2-2.2-11.5-.9-19-6-24.3-14.9-14.6 10.9-39 24.2-56.3 8.7-4.4-1.9-4.1-13.7-9.4-10.6-12.2 15.6-39.5 24.6-55.8 10.6h-.1c-10.1-6.6-3.3-32.1-10.5-24.8-14.4 36.6-73.2 43.4-91.8 8-3.9-3.7-2-16.6-7.4-16.6-6.1 3.2-15.5 4.6-18.2 8.6-4.3 19.4-3.8 68.2-21.3 80.2-55.8 35.6-83.2-41.9-3.6-81.3 2.4-27.5 8.7-58.4 9.8-84.5-1.7-5-20.9 5.3-28 2.9-22.8 2.4-37.4-25.2-19.6-40 25.4-19.9 65.2 18.1 90.9-3.1 2.3 4.4 3.2 9.5 3.1 14.8-5.2-1.3-8.9-1-13 4.2-6.2 7.7-15 80.8-15 91 3.2 5.4 13.7-4.5 17.8-4.9 5.2-50 85.1-68.8 101.4-16.3h-.1c11.3 12 3.5-85 26.3-89.4M546 395.8c-20.9 7.9-41 30.3-27.6 47.9v.1c5.2 5.7 17.2 5.8 21.3-1.7 2.3-.8 10.7-44.7 6.3-46.3m-27.5 35.9c.5-11.1 8.6-21 24.3-30-1.1 8.9-2.9 32.7-6.8 38.1-2.9 5-11.2 4.6-14.7.9-1.8-2.1-2.8-5-2.8-9m-303.3-48.8c-17.3 3.3-35 24.2-35 40.8-1 13.5 14.2 22.3 24.5 13.3 3-2.5 4.8-6.4 5.5-11.9l5.4-40.7c.1-.5 0-1-.4-1.5m-9.2 41.6c-11.7 33.5-43.3-9 4.8-36.1l-4.8 36.1m20.2-158.6c-6.8-3.4-24.1-6.8-29.8-8.2-10.2-.3-9.2 12.6-2.2 16.7 3.2 5.2 36.5 1.8 32-8.5m-33.1 0c0-9.2 18.5 1.7 25.2 1.7-8.7 4.1-20.9 6.5-25.2-1.7m123.8 44c-26.7 2.5-32.9 46.1-21.6 65.5h-.1c37.6 45.8 68.2-62.3 21.7-65.5m13.5 12.3c14.4 19.6-4.2 78.5-31.4 50.9-14.8-18.8 5.7-80.7 31.4-50.9m136.1-60.6c-1.5 12.9-5.6 32.2-4.1 42.4 6.4 10.4 28.1-37.6 24.3-38.1 2.6-16.2-17.9-22.7-20.2-4.3m4.9-2c1.7-7.3 10.3-5.7 10.1 2 .2 12-4.9 21.5-15 34.2 1-6.3 2.7-27.9 4.9-36.2m-60.5-9.2c-15.4 2.3-10.5 36.1-13.7 45.1 0 1.5-1.4 7.4.2 8.5.1 1.9 2.5 2.8 3.8 1.3 15.2-16.6 33.3-48.2 9.7-54.9m-4.6 9.2c1.5-7.4 10.3-5.8 10.1 2 .2 12-4.8 21.5-14.9 34.2.9-6.2 2.4-27.9 4.8-36.2m323.1-21.7c5 35.7 0 77.9-10.4 114.4-7 27.8-35 37.2-27.8 0 4.5-30.9 8.4-54.4 13-90.7 2.4-12.2 4-27.1-14.5-26.2-7.2.5-15.4.3-19.3 5.1-6.3 16.2-5.7 138.9-31.1 136.3-16.3-2-6.4-26-5.9-38.6 3-21.9 6-43.5 9.2-64.2 14-82.7-114.8-32.1-39.4 27l-7.9 60c-8.2 42.4 49.3 54.9 70.7 24.5 21.4 33.5 70.8 12.9 81-19.9 11.9 51.7 92.5 46.1 105.8-2.6-6.2 33.7 29.5 52 54.1 30v.1c19.3-18.8 8.5-54.2-12.9-69 3.6-9.2 17.7-13.1 18-1.2-3.5 12.1 14.3 5.4 18.3 1.6 22.8-24.6-18.8-43.5-37-24.6-2.5-10.1-26-9.6-32.9-3.3l-4.2 36.7c-1.1-10.7-6-20.1-13.7-27.5-21.7-21.8-63.9-15.6-82.4 6.7 3.1-33.5 24.1-105.2-30.7-74.6m7.2 26.4c0-8.4-.7-16.5-2-23 50.4-23 17.5 53.7 20.8 80.9 3.3 7 9.2-8.4 13.4-9.9 31.9-30.1 95.2-9.7 82.2 40-4.9 55.4-96.9 63.4-100.8 4.8-4.5-7.9-7.7 11.7-10.2 13.4-11.3 27.2-56.1 41.1-71.7 10-.8-1.4-2.9-1.6-3.7-.1-11.7 20.4-49.2 25.6-61.4 3.6-9.1-14.7 7.3-68.3 4.7-83.9-66.5-51.4 33.6-93.3 31.9-35.3-3.4 23.9-7.1 48.4-10.5 73.5-1.3 12.8-6.2 26.9-.9 37.4 12.9 17.4 31.7 2.6 33.3-23.3 0 0 13.7-108.4 13.8-108.4 7.1-3 29-6.4 25.9 7.1l.1-.1c-4.7 43-12.6 77-15.4 115.6-.6 20.9 23.7 21.9 32 2.2 15.1-30.5 17.3-72.6 18.5-104.5m121.1 106.4c-.9.7 7.5-68.8 7.6-70.6 31.3-8.7 20.6 11 28.8 7.5 22-26.5 61.3 7.9 22 17.6 3.9-20.8-28-16.1-26.3 1.2 42.6 27 18.9 95.6-26.9 63.7-4-5.5-5.1-11.7-5.2-19.4m42.2-18c-20.9-39.2-15 13-18.5 18.6 4.1 28.8 33.1 6.4 18.5-18.6m-11.8-.4c.3-2.3.6-4.9 1-7.7 25.7 24.8-11.4 58.7-1 7.7m-276.5-99.1c-5-10.4-18.3-.9-16.6 8.4-.3 8.9 17.4 38.1 17.1 12.8.3-6.5 2.5-15.5-.5-21.2m-4.5.8c2.1 6.8-.1 15.4-.7 22.5-6.5-5.2-12.1-26.1.7-22.5m171.1 84.3c-2.8 11.5-2.8 27.5 3.6 37.1h-.1c30.7 38 58.1-30.1 38.9-55.3-13.7-23.2-40.4-3.2-42.4 18.2m2.5 15.1c.4-14.8 5.9-38.2 22.7-39.2 23.8 2.3 21 40.1 11.4 55.5-13.3 22.2-36.8 5.4-34.1-16.3M1114.5 234c-8.9-5-30.4-3.1-34.1 8l-6.3 52.2c-42.1-11.9-82.2 23.7-77.4 66.5-5 11.8-27.9 28.8-30.1 8.6.4-7.8 3.8-33.1 4.9-44.3 39.4-26.5 60.4-111-9.6-90.1-22.3 11.9-18 57-22.4 77.3-.2 28-15.8 62 1.5 82.2 11.8 11.6 34.1 9.6 47.6 1.5 6-3.5 11-7.8 15.1-13.1 13.2 21.8 48.1 27 65.3 7.1 20.6 34.1 88.6-10.3 58.2-41.5-6.5-3.6-8.2 28.9-24.3 29.7-9.9-3-.3-27.2-.7-39.8 2.7-31.6 11.9-74 12.3-104.3m-11.6 3.4c3.2 0 5.9.3 7.9.9-5 40.6-13.2 94.6-16.6 134.2 4.3 26.7 30.2 1.3 33.1-16.8 1.9 2.3 3.5 4.5 4.5 7.2-6.3 31.6-44.6 48.8-61.5 21.2-16.2 15.1-40.3 20.5-58 2.7h.1c-4-2.1-6.7-14.4-11.2-7.8-11.8 16.9-40.2 27-57.2 12.5-14-19.6.8-52.3.8-79.2 4.3-19-.1-59.8 20-71.9 54.2-17.8 44.6 45.5 13.8 71.8-14.2 8.8-12.5 25.2-14.5 40-8.5 32.1 12.8 43.9 32.7 18.9 8.4-8.2 3.4-21.2 7.1-31.3 6.3-25.8 29.2-42.6 56.1-41.7 6.2-1.7 15.1 5.3 18.8.7l6.5-54.4c3.2-5.3 10.9-7 17.6-7m-75.6 114.9v.9c-5.2 30.5 33.7 45.2 43.7 10.1.3-.6 5.5-46.6 5.7-47.2.1-.8-.2-1.5-.8-1.9-25.3-17.8-49.5 12-48.6 38.1m4.1 4.7c-.6-23.1 13.1-52 40.1-41.4l-5.4 44.8c-7.1 25.7-35.9 21.3-34.7-3.4m-38.5-101.2C970.8 231.4 970 295 970.6 304c5.3 10.9 32.5-39.5 22.3-48.2m-13.4 3.8c1.6-7.4 10.3-5.8 10.1 2 .2 12-4.9 21.5-15 34.2 1-6.2 2.6-27.9 4.9-36.2z"/><path d="M391.6 240.4s-.1 0 0 0c-23 4.7-15 101.2-26.4 89.4h.1c-16.3-52.5-96.1-33.7-101.3 16.3-4.2.5-14.5 10.3-17.9 4.9 0-10.5 8.6-82.9 15-91 4-5.2 7.7-5.6 13-4.2.1-5.3-.7-10.4-3.1-14.8-25.7 21.2-65.5-16.8-90.9 3.1-17.8 14.8-3.3 42.4 19.6 40 7.3 2.4 26-8 28-2.9-1.1 26.1-7.4 57-9.8 84.5-79.5 39.4-52.1 116.9 3.6 81.3 17.5-11.8 16.9-60.9 21.3-80.2 2.7-4 12-5.3 18.1-8.6 5.4-.1 3.5 12.9 7.5 16.5 19.5 36.4 77.8 27.6 92.8-9.1 6.3-2.2-.8 18.4 9.5 25.8h.1c16.3 14 43.6 5 55.7-10.5 5.3-3.2 5 8.7 9.4 10.5 17.4 15.5 41.7 2.2 56.3-8.7 5.3 8.9 12.8 14 24.3 14.9 1.1.1 2 1.2 1.9 2.3l.1-.1c.9.9 1 2.3 0 3.2-11.3 10.7-17 21.6-17.1 32.8-2.2 29.2 41.5 32.7 54.9 13.7v-.1c12.5-13.1 12.3-41.8 15.9-59.4 14.5-.9 24 16.4 26.7 29.5 7.4-7.6 3.7-14.8.6-22.3-5-9.4-12.8-15.1-23.6-17-1-.2-1.8-1.1-1.8-2.1-2.7-1.6 9.7-76.8 9-79-6.4-1.2-11.4-1.5-18.6 1.4h.1c-13.9 3.7-9.6 58.9-14.8 71.5-8.8 15.7-35.2 15-33.7-5.6-.4-6.9 9.4-58.6 6.5-65.3l-.2.1c-5.8-5.1-15.1-3.1-22.8-1.1-4.8 23.2-2.3 50.2-11.2 71.3-8.2 11.9-25.1 19.5-32.4 6.9-5.3-13 2.8-37.8 2.9-54.5 32.9-23.7 63.6-101-2.5-83.3-36.8 27.1 1.1 135.8-54.9 144-24.4-1.8-6.4-42.8-7.8-60.6 33.2-23.9 64.1-101.1-2.1-83.5m19.1 10c23.8 6.5 5.7 38.3-9.6 54.9-1.3 1.4-3.7.5-3.8-1.3-1.6-1-.1-7-.2-8.5 3.2-9.1-1.5-42.5 13.6-45.1m55.1 15.5c-.3-20.3 22.7-20.3 21 0 3.9.6-18 48.6-24.3 38.1-1.7-8.9 2.3-26.1 3.3-38.1m-158.2 46.4c56.4-19.4 30.6 113.6-12.3 63.1h.1c-10.6-18.3-5.6-51 12.2-63.1m-81.7-46.8c5.7 10.6-28.6 14.2-31.8 8.9-7-4-8-16.9 2.2-16.6 5.9 1 22.4 5 29.6 7.7m-11.1 117c.3 9.1-2.5 48.1-10.1 54.5-25.3 15.7-33.3-24.7-14.8-39.2 2.4-2 21.1-22.2 24.9-15.3m330.4 11.7c5.6 8.9-2.3 40.5-5.4 47.8-4.1 7.5-16.2 7.4-21.4 1.7v-.1c-14.7-18 5-41.2 26.8-49.4z" style="fill:#d70000"/><path d="M857.9 364.9c-.7 8.2.1 18.8 5 25.2 45.9 31.9 69.5-36.7 26.9-63.7-1.7-17.3 30.1-22 26.3-1.2 39.3-9.7 0-44-22-17.6-8.2 3.4 2.4-16.2-28.8-7.5l-7.4 64.8m41.7-12.6c15.1 25-14 48.1-18.2 19.1 3.7-5.5-2.6-57.6 18.2-19.1m-163-89.1c-1.1 32.3-3.3 74.7-18.7 105.5-8.3 19.7-32.6 18.7-32-2.2 2.8-38.6 10.7-72.6 15.4-115.6l-.1.1c3.1-13.5-18.8-10-25.9-7.1l-13.8 108.4c-1.7 25.9-20.5 40.7-33.4 23.3-5.3-10.5-.4-24.5.9-37.4 3.4-25.8 7.4-51 10.8-75.7-2.4-55.3-97.2-12.6-32.1 37.4 2.7 15.9-13.7 69-4.6 83.9 12.2 22.1 49.7 16.8 61.4-3.5.8-1.4 2.9-1.3 3.7.1 15.6 31.1 60.4 17.2 71.7-10.1 2.5-1.6 5.8-21.2 10.2-13.4 4 58.6 95.9 50.6 100.8-4.9 13-49.7-50.3-70.1-82.2-40-4.3 1.5-10 16.9-13.4 9.9C752 294.7 785 218 734.5 241c1.4 6.6 2.1 13.9 2.1 22.2m39.8 89.1c-2.6-24.1 24.3-61 44.2-32.2 19.2 25.1-8.2 93.2-38.9 55.3h.1c-4-6.4-5.5-14.1-5.4-23.1M610.7 251.6c4.1 6.1 1.7 15.6 1.4 22.8.3 25.3-17.4-3.9-17.1-12.8-1.3-8.4 9.1-17.8 15.7-10m500.1-13.3c-7.7-2-21.2-1.2-25.5 6.1l-6.5 54.4c-3.6 4.6-12.7-2.4-18.8-.7-26.9-.9-49.9 15.9-56.2 41.7-3.7 10.2 1.2 23.1-7.1 31.3-19.8 24.9-41.1 13.2-32.6-19 2.1-14.8.3-31.1 14.5-40 30.8-26.3 40.3-89.7-13.9-71.9-20 12.1-15.6 52.9-20 71.8 0 26.9-14.8 59.6-.8 79.2 17 14.5 45.4 4.4 57.2-12.5 4.5-6.6 7.2 5.7 11.2 7.8h-.1c17.7 17.8 41.7 12.4 58-2.7 16.9 27.6 55.1 10.4 61.5-21.2-1-2.7-2.6-4.9-4.5-7.2-2.9 18.1-28.8 43.5-33.1 16.7 3.5-39.2 11.7-93.1 16.7-133.8m-126.7 12.1c29.2 3.6-8.6 64.5-13.5 53.6-1.6-1.1-.1-7-.2-8.5 3.2-9.1-1.7-42.8 13.7-45.1m43.2 102.8c-2.4-26.3 26.8-59.9 49.4-37.2-.2.7-5.5 46.6-5.7 47.3-10 35-48.9 20.3-43.7-10.1z" style="fill:#1f9891"/></g></g></svg>